<?xml version="1.0" encoding="UTF-8" standalone="no"?>
<svg
   width="316.50418"
   zoomAndPan="magnify"
   viewBox="0 0 237.37814 129.09766"
   height="172.13022"
   preserveAspectRatio="xMidYMid"
   version="1.0"
   id="svg197"
   sodipodi:docname="Áginak háttér nélkül.svg"
   xmlns:inkscape="http://www.inkscape.org/namespaces/inkscape"
   xmlns:sodipodi="http://sodipodi.sourceforge.net/DTD/sodipodi-0.dtd"
   xmlns="http://www.w3.org/2000/svg"
   xmlns:svg="http://www.w3.org/2000/svg">
  <sodipodi:namedview
     id="namedview199"
     pagecolor="#ffffff"
     bordercolor="#000000"
     borderopacity="0.25"
     inkscape:showpageshadow="2"
     inkscape:pageopacity="0.0"
     inkscape:pagecheckerboard="0"
     inkscape:deskcolor="#d1d1d1"
     showgrid="false" />
  <defs
     id="defs13">
    <clipPath
       id="e4b066bd9d">
      <path
         d="M 277.71094,235.65625 H 284.75 v 5.60156 h -7.03906 z m 0,0"
         clip-rule="nonzero"
         id="path4" />
    </clipPath>
    <clipPath
       id="1e22a2c234">
      <path
         d="m 286.94922,112.16016 h 12.49609 v 74.80859 h -12.49609 z m 0,0"
         clip-rule="nonzero"
         id="path7" />
    </clipPath>
    <clipPath
       id="566e0ae015">
      <path
         d="M 264.94922,181 H 278 v 60.25781 h -13.05078 z m 0,0"
         clip-rule="nonzero"
         id="path10" />
    </clipPath>
  </defs>
  <g
     fill="#bb3d34"
     fill-opacity="1"
     id="g21"
     transform="translate(-62.067176,-112.16015)">
    <g
       transform="translate(61.457802,191.93811)"
       id="g19">
      <g
         id="g17">
        <path
           d="m 20.359375,-39.796875 c -0.01172,0.09375 -0.04297,0.496094 -0.09375,1.203125 -0.05469,0.710938 -0.121094,1.640625 -0.203125,2.796875 -0.07422,1.148437 -0.164062,2.484375 -0.265625,4.015625 -0.105469,1.53125 -0.214844,3.167969 -0.328125,4.90625 -0.105469,1.730469 -0.214844,3.527344 -0.328125,5.390625 -0.117187,1.855469 -0.230469,3.6875 -0.34375,5.5 l 1.765625,1.28125 c 1.976562,-0.457031 3.992188,-0.957031 6.046875,-1.5 2.050781,-0.550781 3.96875,-1.078125 5.75,-1.578125 L 33.875,-39.5625 c 0.01953,-0.289062 0.03906,-0.535156 0.0625,-0.734375 0.03125,-0.195313 0.07813,-0.363281 0.140625,-0.5 0.07031,-0.132813 0.171875,-0.238281 0.296875,-0.3125 0.132812,-0.07031 0.304688,-0.128906 0.515625,-0.171875 0.21875,-0.03906 0.378906,-0.113281 0.484375,-0.21875 0.101562,-0.101562 0.1875,-0.210938 0.25,-0.328125 0.07031,-0.125 0.148438,-0.238281 0.234375,-0.34375 0.09375,-0.101563 0.226563,-0.1875 0.40625,-0.25 0.164063,-0.05078 0.347656,-0.132813 0.546875,-0.25 0.207031,-0.125 0.40625,-0.25 0.59375,-0.375 0.195312,-0.125 0.382812,-0.234375 0.5625,-0.328125 0.175781,-0.09375 0.34375,-0.140625 0.5,-0.140625 0.207031,0 0.394531,0.08984 0.5625,0.265625 0.164062,0.167969 0.25,0.398438 0.25,0.6875 0,0.136719 -0.02734,0.546875 -0.07813,1.234375 -0.04297,0.6875 -0.105469,1.589844 -0.1875,2.703125 -0.07422,1.117188 -0.167969,2.40625 -0.28125,3.875 -0.105469,1.46875 -0.21875,3.042969 -0.34375,4.71875 -0.125,1.679688 -0.261719,3.429688 -0.40625,5.25 -0.148437,1.824219 -0.289063,3.648438 -0.421875,5.46875 0.488281,-0.15625 0.890625,-0.289062 1.203125,-0.40625 0.320313,-0.125 0.550781,-0.210938 0.6875,-0.265625 0.3125,-0.132813 0.515625,-0.203125 0.609375,-0.203125 0.15625,0 0.269531,0.04687 0.34375,0.140625 0.08203,0.09375 0.125,0.21875 0.125,0.375 0,0.15625 -0.04297,0.335937 -0.125,0.53125 -0.07422,0.1875 -0.210938,0.339844 -0.40625,0.453125 -0.117188,0.105469 -0.390625,0.242188 -0.828125,0.40625 -0.429687,0.15625 -1,0.371094 -1.71875,0.640625 -0.179687,2.25 -0.34375,4.402344 -0.5,6.453125 -0.15625,2.054688 -0.296875,3.882812 -0.421875,5.484375 -0.125,1.59375 -0.230469,2.882813 -0.3125,3.859375 -0.07422,0.980469 -0.121094,1.515625 -0.140625,1.609375 -0.05469,0.5 -0.203125,0.847656 -0.453125,1.046875 -0.242188,0.195312 -0.574219,0.296875 -1,0.296875 -0.25,0 -0.5,-0.085937 -0.75,-0.25 -0.25,-0.167969 -0.546875,-0.417969 -0.890625,-0.75 -0.335937,-0.320313 -0.726563,-0.71875 -1.171875,-1.1875 -0.449219,-0.476563 -0.992188,-1.03125 -1.625,-1.65625 C 29.039062,-3.835938 28.015625,-4.800781 27.109375,-5.625 26.210938,-6.445312 25.363281,-7.207031 24.5625,-7.90625 23.757812,-8.601562 22.972656,-9.257812 22.203125,-9.875 c -0.761719,-0.625 -1.585937,-1.285156 -2.46875,-1.984375 -0.21875,0.08594 -0.433594,0.15625 -0.640625,0.21875 -0.199219,0.05469 -0.402344,0.109375 -0.609375,0.171875 -0.105469,1.542969 -0.203125,2.996094 -0.296875,4.359375 -0.09375,1.367187 -0.179688,2.589844 -0.25,3.671875 -0.0625,1.074219 -0.125,1.976562 -0.1875,2.703125 -0.05469,0.71875 -0.08984,1.203125 -0.109375,1.453125 -0.08594,0.738281 -0.242187,1.585938 -0.46875,2.546875 -0.21875,0.957031 -0.605469,1.941406 -1.15625,2.953125 -0.554687,1.019531 -1.324219,2.023438 -2.3125,3.015625 C 12.722656,10.222656 11.421875,11.125 9.796875,11.9375 9.691406,11.976562 9.59375,12.015625 9.5,12.046875 c -0.09375,0.03906 -0.210938,0.0625 -0.34375,0.0625 -0.179688,0 -0.3125,-0.05859 -0.40625,-0.171875 -0.085938,-0.117188 -0.125,-0.25 -0.125,-0.40625 0,-0.15625 0.035156,-0.3125 0.109375,-0.46875 C 8.816406,10.914062 8.945312,10.78125 9.125,10.65625 9.332031,10.507812 9.601562,10.296875 9.9375,10.015625 10.269531,9.742188 10.597656,9.363281 10.921875,8.875 c 0.332031,-0.480469 0.625,-1.085938 0.875,-1.8125 0.25,-0.71875 0.40625,-1.601562 0.46875,-2.640625 0.05078,-0.511719 0.117187,-1.367187 0.203125,-2.5625 0.07031,-1.03125 0.164062,-2.507813 0.28125,-4.4375 0.113281,-1.925781 0.269531,-4.476563 0.46875,-7.65625 -0.523438,0.08594 -1.03125,0.140625 -1.53125,0.171875 -0.492188,0.03125 -0.96875,0.04687 -1.4375,0.04687 -1.5625,0 -2.949219,-0.179687 -4.15625,-0.546875 -1.199219,-0.375 -2.203125,-0.867188 -3.015625,-1.484375 -0.8125,-0.625 -1.429687,-1.335937 -1.84375,-2.140625 -0.417969,-0.800781 -0.625,-1.648438 -0.625,-2.546875 0,-0.875 0.132813,-1.625 0.40625,-2.25 0.269531,-0.632813 0.640625,-1.15625 1.109375,-1.5625 0.476562,-0.40625 1.035156,-0.703125 1.671875,-0.890625 0.644531,-0.195312 1.328125,-0.296875 2.046875,-0.296875 1.15625,0 2.40625,0.214844 3.75,0.640625 1.351562,0.429688 2.734375,1.023438 4.140625,1.78125 l 1.03125,-18.953125 c 0.03125,-0.613281 0.242187,-1.054687 0.640625,-1.328125 C 15.8125,-39.863281 16.320312,-40 16.9375,-40 c 0.15625,0 0.242188,0.01172 0.265625,0.03125 0.01953,0.01172 0.05469,0.01563 0.109375,0.01563 0.132812,0 0.265625,-0.03906 0.390625,-0.125 0.125,-0.08203 0.25,-0.179687 0.375,-0.296875 0.132813,-0.125 0.253906,-0.226562 0.359375,-0.3125 0.101562,-0.08203 0.210938,-0.125 0.328125,-0.125 0.195313,0 0.398437,-0.07813 0.609375,-0.234375 0.21875,-0.15625 0.429688,-0.234375 0.640625,-0.234375 0.289063,0 0.4375,0.183594 0.4375,0.546875 0,0.21875 -0.03125,0.53125 -0.09375,0.9375 z M 23.0625,-12.875 c 1.457031,1.105469 2.878906,2.230469 4.265625,3.375 1.382813,1.148438 2.78125,2.421875 4.1875,3.828125 l 0.703125,-10.15625 c -1.335938,0.4375 -2.773438,0.90625 -4.3125,1.40625 -1.542969,0.492187 -3.15625,1.007813 -4.84375,1.546875 z m -10.765625,-0.484375 c 0.164063,0 0.34375,0 0.53125,0 0.1875,0 0.375,-0.0078 0.5625,-0.03125 l 0.171875,-2.96875 c -1.105469,-0.65625 -2.085938,-1.128906 -2.9375,-1.421875 -0.84375,-0.289062 -1.570312,-0.4375 -2.171875,-0.4375 -0.679687,0 -1.203125,0.15625 -1.578125,0.46875 -0.367188,0.3125 -0.546875,0.742188 -0.546875,1.28125 0,0.367188 0.109375,0.734375 0.328125,1.109375 0.226562,0.367187 0.578125,0.699219 1.046875,1 0.476563,0.292969 1.09375,0.53125 1.84375,0.71875 0.757813,0.1875 1.675781,0.28125 2.75,0.28125 z m 0,0"
           id="path15" />
      </g>
    </g>
  </g>
  <g
     fill="#bb3d34"
     fill-opacity="1"
     id="g29"
     transform="translate(-62.067176,-112.16015)">
    <g
       transform="translate(103.46529,191.93811)"
       id="g27">
      <g
         id="g25">
        <path
           d="m 16.1875,-10.109375 c -0.585938,1.742187 -1.132812,3.265625 -1.640625,4.578125 -0.5,1.304688 -1,2.398438 -1.5,3.28125 -0.5,0.875 -1.039063,1.539062 -1.609375,1.984375 C 10.863281,0.179688 10.226562,0.40625 9.53125,0.40625 9.039062,0.40625 8.632812,0.253906 8.3125,-0.046875 8,-0.359375 7.734375,-0.707031 7.515625,-1.09375 7.304688,-1.488281 7.148438,-1.863281 7.046875,-2.21875 6.941406,-2.582031 6.867188,-2.820312 6.828125,-2.9375 6.804688,-2.976562 6.785156,-3.035156 6.765625,-3.109375 6.742188,-3.179688 6.71875,-3.21875 6.6875,-3.21875 c -0.042969,0 -0.078125,0.03125 -0.109375,0.09375 -0.03125,0.054688 -0.0625,0.105469 -0.09375,0.15625 -0.0625,0.136719 -0.21875,0.390625 -0.46875,0.765625 -0.25,0.367187 -0.570313,0.742187 -0.953125,1.125 -0.375,0.386719 -0.808594,0.730469 -1.296875,1.03125 -0.480469,0.300781 -1,0.453125 -1.5625,0.453125 -0.4375,0 -0.867187,-0.148438 -1.28125,-0.4375 -0.417969,-0.289062 -0.78125,-0.679688 -1.09375,-1.171875 -0.3125,-0.5 -0.554687,-1.085937 -0.734375,-1.765625 -0.1875,-0.675781 -0.28125,-1.398438 -0.28125,-2.171875 0,-1.6875 0.265625,-3.269531 0.796875,-4.75 0.53125,-1.476563 1.394531,-2.96875 2.59375,-4.46875 0.582031,-0.707031 1.195313,-1.34375 1.84375,-1.90625 0.65625,-0.5625 1.289063,-1.03125 1.90625,-1.40625 0.625,-0.382813 1.21875,-0.671875 1.78125,-0.859375 0.570313,-0.195312 1.0625,-0.296875 1.46875,-0.296875 0.269531,0 0.539063,0.05469 0.8125,0.15625 0.28125,0.09375 0.523437,0.257813 0.734375,0.484375 0.207031,0.230469 0.375,0.539062 0.5,0.921875 0.132812,0.375 0.203125,0.835937 0.203125,1.375 0,0.585937 -0.09375,1.214844 -0.28125,1.890625 -0.1875,0.679688 -0.464844,1.3125 -0.828125,1.90625 -0.355469,0.585938 -0.792969,1.074219 -1.3125,1.46875 -0.523438,0.386719 -1.109375,0.578125 -1.765625,0.578125 -0.40625,0 -0.609375,-0.15625 -0.609375,-0.46875 0,-0.21875 0.050781,-0.566406 0.15625,-1.046875 0.101562,-0.488281 0.15625,-0.953125 0.15625,-1.390625 0,-0.175781 -0.011719,-0.382813 -0.03125,-0.625 -0.011719,-0.25 -0.058594,-0.488281 -0.140625,-0.71875 -0.074219,-0.226563 -0.179687,-0.421875 -0.3125,-0.578125 -0.136719,-0.15625 -0.324219,-0.234375 -0.5625,-0.234375 -0.523437,0 -0.976563,0.246094 -1.359375,0.734375 -0.386719,0.480469 -0.710938,1.070312 -0.96875,1.765625 -0.261719,0.699219 -0.460938,1.429687 -0.59375,2.1875 -0.136719,0.75 -0.203125,1.398437 -0.203125,1.9375 0,0.742187 0.054687,1.359375 0.171875,1.859375 0.113281,0.492188 0.265625,0.886719 0.453125,1.1875 0.195313,0.292969 0.421875,0.5 0.671875,0.625 0.25,0.125 0.507812,0.1875 0.78125,0.1875 0.644531,0 1.21875,-0.210938 1.71875,-0.640625 0.5,-0.4375 0.929688,-0.921875 1.296875,-1.453125 0.375,-0.539062 0.679687,-1.023438 0.921875,-1.453125 0.25,-0.4375 0.445312,-0.65625 0.59375,-0.65625 0.175781,0 0.296875,0.203125 0.359375,0.609375 0.113281,0.867188 0.238281,1.578125 0.375,2.140625 0.132813,0.5625 0.269531,1.007813 0.40625,1.328125 0.132813,0.324219 0.273437,0.546875 0.421875,0.671875 0.144531,0.125 0.296875,0.1875 0.453125,0.1875 0.289063,0 0.578125,-0.164063 0.859375,-0.5 0.289062,-0.34375 0.582031,-0.804687 0.875,-1.390625 0.289062,-0.582031 0.59375,-1.257812 0.90625,-2.03125 0.3125,-0.78125 0.640625,-1.601562 0.984375,-2.46875 0.21875,-0.488281 0.472656,-0.734375 0.765625,-0.734375 0.28125,0 0.421875,0.179687 0.421875,0.53125 0,0.136719 -0.01563,0.261719 -0.04687,0.375 z m -2.421875,-18.09375 c 0.175781,0.148437 0.265625,0.328125 0.265625,0.546875 0,0.117188 -0.02734,0.234375 -0.07813,0.359375 -0.04297,0.125 -0.08594,0.234375 -0.125,0.328125 -0.179687,0.355469 -0.414063,0.730469 -0.703125,1.125 -0.292969,0.398438 -0.664062,0.804688 -1.109375,1.21875 -0.4375,0.417969 -0.976563,0.835938 -1.609375,1.25 -0.625,0.417969 -1.375,0.828125 -2.25,1.234375 -0.117188,0.0625 -0.21875,0.09375 -0.3125,0.09375 -0.273438,0 -0.40625,-0.15625 -0.40625,-0.46875 0,-0.15625 0.046875,-0.3125 0.140625,-0.46875 0.082031,-0.132813 0.253906,-0.378906 0.515625,-0.734375 0.257812,-0.363281 0.546875,-0.820312 0.859375,-1.375 0.320313,-0.550781 0.644531,-1.179688 0.96875,-1.890625 0.332031,-0.71875 0.609375,-1.503906 0.828125,-2.359375 0.03906,-0.195312 0.125,-0.34375 0.25,-0.4375 0.125,-0.09375 0.234375,-0.140625 0.328125,-0.140625 0.132813,0 0.25,0.07813 0.34375,0.234375 0.175781,0.25 0.351563,0.402344 0.53125,0.453125 0.1875,0.04297 0.320313,0.105469 0.40625,0.1875 0.175781,0.148437 0.335937,0.261719 0.484375,0.34375 0.15625,0.07422 0.378906,0.242187 0.671875,0.5 z m 0,0"
           id="path23" />
      </g>
    </g>
  </g>
  <g
     fill="#bb3d34"
     fill-opacity="1"
     id="g37"
     transform="translate(-62.067176,-112.16015)">
    <g
       transform="translate(118.71698,191.93811)"
       id="g35">
      <g
         id="g33">
        <path
           d="m 11.59375,-10.109375 c -0.625,1.78125 -1.183594,3.335937 -1.671875,4.65625 -0.492187,1.3125 -0.992187,2.414063 -1.5,3.296875 -0.5,0.875 -1.042969,1.53125 -1.625,1.96875 C 6.210938,0.25 5.515625,0.46875 4.703125,0.46875 4.242188,0.46875 3.75,0.335938 3.21875,0.078125 c -0.523438,-0.257813 -1.007812,-0.757813 -1.453125,-1.5 -0.4375,-0.738281 -0.804687,-1.769531 -1.09375,-3.09375 -0.292969,-1.332031 -0.4375,-3.0625 -0.4375,-5.1875 0,-0.5625 0.019531,-1.300781 0.0625,-2.21875 C 0.347656,-12.847656 0.40625,-13.875 0.46875,-15 c 0.070312,-1.132812 0.15625,-2.335938 0.25,-3.609375 0.101562,-1.269531 0.210938,-2.539063 0.328125,-3.8125 -0.09375,0.01172 -0.183594,0.02344 -0.265625,0.03125 -0.074219,0.01172 -0.164062,0.01563 -0.265625,0.01563 -1.039063,0.117188 -1.800781,0.21875 -2.28125,0.3125 -0.488281,0.08594 -0.78125,0.171875 -0.875,0.265625 -0.101563,0.08594 -0.15625,0.179687 -0.15625,0.28125 0,0.105469 0,0.203125 0,0.296875 -0.00781,0.08594 -0.039063,0.164062 -0.09375,0.234375 -0.050781,0.0625 -0.15625,0.09375 -0.3125,0.09375 -0.09375,0 -0.210937,-0.01953 -0.359375,-0.0625 -0.144531,-0.05078 -0.289062,-0.128906 -0.4375,-0.234375 -0.144531,-0.113281 -0.265625,-0.25 -0.359375,-0.40625 C -4.453125,-21.757812 -4.5,-21.960938 -4.5,-22.203125 c 0,-0.207031 0.046875,-0.425781 0.140625,-0.65625 0.085937,-0.238281 0.195313,-0.460937 0.328125,-0.671875 0.136719,-0.226562 0.335938,-0.507812 0.59375,-0.84375 0.261719,-0.332031 0.609375,-0.664062 1.046875,-1 0.429687,-0.34375 0.964844,-0.65625 1.609375,-0.9375 0.636719,-0.289062 1.390625,-0.523438 2.265625,-0.703125 0.09375,-0.8125 0.191406,-1.53125 0.296875,-2.15625 0.113281,-0.632813 0.226562,-1.195313 0.34375,-1.6875 0.113281,-0.5 0.222656,-0.945313 0.328125,-1.34375 0.101563,-0.394531 0.21875,-0.757813 0.34375,-1.09375 0.226563,-0.75 0.515625,-1.320313 0.859375,-1.71875 0.351562,-0.40625 0.753906,-0.828125 1.203125,-1.265625 0.476563,-0.488281 0.882813,-0.8125 1.21875,-0.96875 0.34375,-0.164062 0.601563,-0.257812 0.78125,-0.28125 0.175781,0 0.332031,0.05469 0.46875,0.15625 0.144531,0.105469 0.21875,0.292969 0.21875,0.5625 0,0.15625 -0.011719,0.289062 -0.03125,0.390625 -0.011719,0.105469 -0.027344,0.199219 -0.046875,0.28125 C 7.40625,-35.929688 7.3125,-35.550781 7.1875,-35 c -0.125,0.542969 -0.273438,1.203125 -0.4375,1.984375 -0.15625,0.78125 -0.324219,1.664063 -0.5,2.640625 -0.179688,0.980469 -0.335938,2.023438 -0.46875,3.125 1.039062,0.07422 1.914062,0.203125 2.625,0.390625 0.707031,0.1875 1.140625,0.296875 1.296875,0.328125 0.332031,0.125 0.554687,0.234375 0.671875,0.328125 0.113281,0.09375 0.21875,0.257813 0.3125,0.484375 0.08203,0.15625 0.175781,0.289062 0.28125,0.390625 0.101562,0.09375 0.207031,0.183594 0.3125,0.265625 0.113281,0.07422 0.207031,0.15625 0.28125,0.25 0.07031,0.09375 0.109375,0.230469 0.109375,0.40625 0,0.15625 -0.03906,0.308594 -0.109375,0.453125 -0.07422,0.148437 -0.164062,0.242187 -0.265625,0.28125 -0.136719,0.07422 -0.386719,0.148437 -0.75,0.21875 -0.367187,0.0625 -0.8125,0.132813 -1.34375,0.203125 -0.523437,0.0625 -1.117187,0.132812 -1.78125,0.203125 -0.667969,0.0625 -1.359375,0.136719 -2.078125,0.21875 -0.230469,2.398437 -0.460938,4.710937 -0.6875,6.9375 -0.21875,2.230469 -0.328125,4.214844 -0.328125,5.953125 0,0.898438 0.050781,1.714844 0.15625,2.453125 0.113281,0.730469 0.273437,1.359375 0.484375,1.890625 0.207031,0.53125 0.460938,0.945312 0.765625,1.234375 0.300781,0.292969 0.644531,0.4375 1.03125,0.4375 0.351563,0 0.671875,-0.15625 0.953125,-0.46875 0.289062,-0.320313 0.582031,-0.765625 0.875,-1.328125 0.289062,-0.5625 0.585938,-1.226562 0.890625,-2 0.300781,-0.78125 0.625,-1.632812 0.96875,-2.5625 0.175781,-0.488281 0.429687,-0.734375 0.765625,-0.734375 0.300781,0 0.453125,0.179687 0.453125,0.53125 0,0.05469 -0.01172,0.121094 -0.03125,0.203125 -0.01172,0.07422 -0.02734,0.132812 -0.04687,0.171875 z m 0,0"
           id="path31" />
      </g>
    </g>
  </g>
  <g
     fill="#bb3d34"
     fill-opacity="1"
     id="g51"
     transform="translate(-62.067176,-112.16015)">
    <g
       transform="translate(140.0984,191.93811)"
       id="g49">
      <g
         id="g47">
        <path
           d="m 34.375,-33.609375 c 1.0625,0 1.9375,0.171875 2.625,0.515625 0.6875,0.335938 1.234375,0.820312 1.640625,1.453125 0.40625,0.625 0.6875,1.375 0.84375,2.25 0.15625,0.867187 0.234375,1.820313 0.234375,2.859375 0,0.875 -0.04687,1.804688 -0.140625,2.78125 -0.08594,0.980469 -0.171875,1.992188 -0.265625,3.03125 -0.25,2.40625 -0.460938,4.773438 -0.625,7.09375 -0.167969,2.324219 -0.25,4.601562 -0.25,6.828125 0,2.5 0.117188,4.757813 0.359375,6.765625 0.238281,2 0.632813,3.8125 1.1875,5.4375 0.550781,1.625 1.28125,3.078125 2.1875,4.359375 0.914063,1.289063 2.046875,2.460937 3.390625,3.515625 0.207031,0.164062 0.367188,0.300781 0.484375,0.40625 0.113281,0.113281 0.171875,0.25 0.171875,0.40625 0,0.25 -0.171875,0.375 -0.515625,0.375 -0.199219,0 -0.414063,-0.03906 -0.640625,-0.109375 -1.335938,-0.511719 -2.71875,-1.25 -4.15625,-2.21875 -1.4375,-0.96875 -2.746094,-2.230469 -3.921875,-3.78125 C 35.804688,6.816406 34.832031,4.9375 34.0625,2.71875 33.300781,0.5 32.921875,-2.117188 32.921875,-5.140625 c 0,-2.050781 0.06641,-4.082031 0.203125,-6.09375 0.132812,-2.019531 0.28125,-3.925781 0.4375,-5.71875 0.164062,-1.789063 0.316406,-3.4375 0.453125,-4.9375 0.132813,-1.5 0.203125,-2.78125 0.203125,-3.84375 0,-0.582031 -0.04687,-1.035156 -0.140625,-1.359375 -0.09375,-0.332031 -0.214844,-0.582031 -0.359375,-0.75 -0.148438,-0.164062 -0.320312,-0.265625 -0.515625,-0.296875 -0.1875,-0.03906 -0.371094,-0.0625 -0.546875,-0.0625 -0.230469,0 -0.464844,0.07813 -0.703125,0.234375 -0.230469,0.148438 -0.464844,0.433594 -0.703125,0.859375 -0.230469,0.429687 -0.453125,1.007813 -0.671875,1.734375 -0.21875,0.730469 -0.429687,1.671875 -0.625,2.828125 -0.136719,0.71875 -0.289063,1.585937 -0.453125,2.59375 -0.167969,1 -0.355469,2.074219 -0.5625,3.21875 -0.199219,1.148437 -0.402344,2.3125 -0.609375,3.5 -0.199219,1.1875 -0.390625,2.320313 -0.578125,3.390625 -0.179688,1.0625 -0.351562,2.027344 -0.515625,2.890625 -0.167969,0.855469 -0.308594,1.527344 -0.421875,2.015625 -0.480469,2.054688 -1.105469,3.554688 -1.875,4.5 -0.761719,0.945312 -1.726562,1.421875 -2.890625,1.421875 -0.855469,0 -1.527344,-0.195313 -2.015625,-0.578125 -0.492188,-0.3867188 -0.867188,-0.867188 -1.125,-1.453125 -0.25,-0.582031 -0.40625,-1.21875 -0.46875,-1.90625 -0.05469,-0.6875 -0.07813,-1.328125 -0.07813,-1.921875 0,-3.894531 0.04687,-7.710938 0.140625,-11.453125 0.101562,-3.738281 0.15625,-7.488281 0.15625,-11.25 0,-1.382813 -0.04297,-2.628906 -0.125,-3.734375 -0.07422,-1.101562 -0.234375,-2.035156 -0.484375,-2.796875 -0.25,-0.769531 -0.601563,-1.363281 -1.046875,-1.78125 -0.449219,-0.414063 -1.03125,-0.625 -1.75,-0.625 -0.679688,0 -1.265625,0.390625 -1.765625,1.171875 -0.492187,0.78125 -0.902344,1.855469 -1.234375,3.21875 -0.324219,1.355469 -0.574219,2.953125 -0.75,4.796875 -0.167969,1.835937 -0.28125,3.808594 -0.34375,5.921875 -0.04297,1.449219 -0.07813,2.929688 -0.109375,4.4375 -0.02344,1.511719 -0.0625,2.980469 -0.125,4.40625 -0.05469,1.417969 -0.132813,2.761719 -0.234375,4.03125 -0.09375,1.273438 -0.210938,2.414062 -0.34375,3.421875 -0.136719,1.742187 -0.296875,3.179687 -0.484375,4.3125 C 9.679688,0.335938 9.523438,1.191406 9.390625,1.765625 9.265625,2.273438 9.054688,2.625 8.765625,2.8125 8.484375,3.007812 8.160156,3.132812 7.796875,3.1875 7.441406,3.25 7.078125,3.28125 6.703125,3.28125 6.335938,3.28125 6.019531,3.335938 5.75,3.453125 5.425781,3.585938 5.085938,3.65625 4.734375,3.65625 4.398438,3.65625 4.125,3.578125 3.90625,3.421875 3.6875,3.273438 3.578125,3.003906 3.578125,2.609375 c 0,-0.136719 0.00781,-0.25 0.03125,-0.34375 C 3.640625,2.035156 3.71875,1.53125 3.84375,0.75 c 0.125,-0.7695312 0.269531,-1.703125 0.4375,-2.796875 0.164062,-1.09375 0.335938,-2.296875 0.515625,-3.609375 0.175781,-1.320312 0.332031,-2.648438 0.46875,-3.984375 0.132813,-1.34375 0.25,-2.640625 0.34375,-3.890625 0.09375,-1.257812 0.140625,-2.375 0.140625,-3.34375 0,-1.613281 -0.054688,-3.035156 -0.15625,-4.265625 -0.105469,-1.226563 -0.246094,-2.320313 -0.421875,-3.28125 C 4.992188,-25.378906 4.785156,-26.238281 4.546875,-27 4.304688,-27.769531 4.050781,-28.5 3.78125,-29.1875 3.507812,-29.875 3.234375,-30.5625 2.953125,-31.25 2.671875,-31.9375 2.394531,-32.6875 2.125,-33.5 c -0.355469,-1.039062 -0.605469,-2.070312 -0.75,-3.09375 -0.148438,-1.019531 -0.21875,-2.003906 -0.21875,-2.953125 0,-0.96875 0.0625,-1.867187 0.1875,-2.703125 0.132812,-0.84375 0.300781,-1.570312 0.5,-2.1875 0.207031,-0.625 0.425781,-1.113281 0.65625,-1.46875 0.226562,-0.363281 0.453125,-0.546875 0.671875,-0.546875 0.25,0 0.441406,0.15625 0.578125,0.46875 0.132812,0.304687 0.203125,0.679687 0.203125,1.125 0,0.15625 -0.00781,0.34375 -0.015625,0.5625 -0.011719,0.210937 -0.015625,0.460937 -0.015625,0.75 0,0.480469 0.023437,1.0625 0.078125,1.75 0.0625,0.6875 0.195312,1.484375 0.40625,2.390625 0.21875,0.898438 0.53125,1.898438 0.9375,3 0.40625,1.105469 0.957031,2.320312 1.65625,3.640625 0.3125,0.574219 0.59375,1.148437 0.84375,1.71875 0.25,0.574219 0.484375,1.140625 0.703125,1.703125 0.34375,-1.757812 0.800781,-3.28125 1.375,-4.5625 0.570313,-1.28125 1.1875,-2.363281 1.84375,-3.25 0.65625,-0.894531 1.332031,-1.625 2.03125,-2.1875 0.695313,-0.5625 1.363281,-0.988281 2,-1.28125 0.644531,-0.300781 1.21875,-0.503906 1.71875,-0.609375 0.507813,-0.113281 0.90625,-0.171875 1.1875,-0.171875 0.820313,0 1.519531,0.226562 2.09375,0.671875 0.582031,0.449219 1.082031,1.070313 1.5,1.859375 0.414063,0.78125 0.753906,1.699219 1.015625,2.75 0.257812,1.054688 0.460938,2.1875 0.609375,3.40625 0.144531,1.210938 0.238281,2.46875 0.28125,3.78125 0.05078,1.304688 0.07813,2.589844 0.07813,3.859375 0,2.65625 -0.04297,4.949219 -0.125,6.875 -0.08594,1.929687 -0.183594,3.605469 -0.296875,5.03125 -0.105469,1.417969 -0.199219,2.636719 -0.28125,3.65625 -0.08594,1.023437 -0.125,1.949219 -0.125,2.78125 0,0.210937 0.03906,0.371094 0.125,0.484375 0.08203,0.117188 0.179687,0.171875 0.296875,0.171875 0.195312,0 0.363281,-0.082031 0.5,-0.25 0.132812,-0.175781 0.273438,-0.5625 0.421875,-1.15625 0.144531,-0.59375 0.304687,-1.457031 0.484375,-2.59375 0.1875,-1.144531 0.4375,-2.6875 0.75,-4.625 0.25,-1.601563 0.476562,-3.179687 0.6875,-4.734375 0.21875,-1.550781 0.457031,-3.023438 0.71875,-4.421875 0.257812,-1.40625 0.5625,-2.703125 0.90625,-3.890625 0.351562,-1.195312 0.796875,-2.222656 1.328125,-3.078125 0.53125,-0.863281 1.175781,-1.539063 1.9375,-2.03125 0.757813,-0.5 1.679687,-0.75 2.765625,-0.75 z m 0,0"
           id="path45" />
      </g>
    </g>
  </g>
  <g
     fill="#bb3d34"
     fill-opacity="1"
     id="g59"
     transform="translate(-62.067176,-112.16015)">
    <g
       transform="translate(183.7037,191.93811)"
       id="g57">
      <g
         id="g55">
        <path
           d="M 19.609375,-10.109375 C 18.992188,-8.390625 18.4375,-6.875 17.9375,-5.5625 c -0.492188,1.304688 -0.992188,2.398438 -1.5,3.28125 -0.5,0.886719 -1.046875,1.554688 -1.640625,2 C 14.210938,0.15625 13.519531,0.375 12.71875,0.375 12.039062,0.375 11.46875,0.175781 11,-0.21875 10.539062,-0.613281 10.175781,-1.113281 9.90625,-1.71875 9.632812,-2.332031 9.441406,-3.007812 9.328125,-3.75 9.210938,-4.488281 9.15625,-5.195312 9.15625,-5.875 c 0,-0.5 0,-0.976562 0,-1.4375 0,-0.46875 0.015625,-0.90625 0.046875,-1.3125 -0.417969,1.71875 -0.84375,3.164062 -1.28125,4.328125 -0.4375,1.15625 -0.882813,2.085937 -1.328125,2.78125 -0.449219,0.699219 -0.921875,1.199219 -1.421875,1.5 C 4.679688,0.285156 4.164062,0.4375 3.625,0.4375 3.21875,0.4375 2.804688,0.332031 2.390625,0.125 1.972656,-0.0703125 1.585938,-0.460938 1.234375,-1.046875 0.890625,-1.628906 0.609375,-2.445312 0.390625,-3.5 0.171875,-4.550781 0.0625,-5.941406 0.0625,-7.671875 c 0,-0.425781 0.0039062,-0.941406 0.015625,-1.546875 0.0195312,-0.613281 0.0625,-1.253906 0.125,-1.921875 0.0625,-0.664063 0.132813,-1.320313 0.21875,-1.96875 0.082031,-0.65625 0.191406,-1.242187 0.328125,-1.765625 0.0625,-0.226562 0.140625,-0.507812 0.234375,-0.84375 0.101563,-0.332031 0.203125,-0.546875 0.296875,-0.640625 0.207031,-0.1875 0.382812,-0.359375 0.53125,-0.515625 0.144531,-0.15625 0.265625,-0.234375 0.359375,-0.234375 0.132813,0 0.242187,0.05469 0.328125,0.15625 0.09375,0.105469 0.191406,0.15625 0.296875,0.15625 0.050781,0 0.160156,-0.04687 0.328125,-0.140625 0.164062,-0.09375 0.34375,-0.195312 0.53125,-0.3125 0.195312,-0.125 0.382812,-0.234375 0.5625,-0.328125 0.1875,-0.09375 0.320312,-0.140625 0.40625,-0.140625 0.226562,0 0.34375,0.214844 0.34375,0.640625 0,0.117187 -0.011719,0.25 -0.03125,0.40625 -0.023438,0.15625 -0.046875,0.339844 -0.078125,0.546875 -0.179687,1.242188 -0.304687,2.4375 -0.375,3.59375 -0.0625,1.148438 -0.09375,2.382812 -0.09375,3.703125 0,0.730469 0.00391,1.398437 0.015625,2 0.019531,0.605469 0.066406,1.125 0.140625,1.5625 C 4.617188,-4.835938 4.726562,-4.5 4.875,-4.25 c 0.15625,0.242188 0.367188,0.359375 0.640625,0.359375 0.382813,0 0.742187,-0.253906 1.078125,-0.765625 0.332031,-0.519531 0.640625,-1.1875 0.921875,-2 0.28125,-0.8125 0.546875,-1.710938 0.796875,-2.703125 0.25,-0.988281 0.488281,-1.953125 0.71875,-2.890625 0.238281,-0.9375 0.476562,-1.800781 0.71875,-2.59375 0.238281,-0.789062 0.484375,-1.390625 0.734375,-1.796875 0.25,-0.394531 0.582031,-0.71875 1,-0.96875 0.414063,-0.25 0.8125,-0.375 1.1875,-0.375 0.425781,0 0.726563,0.164063 0.90625,0.484375 0.1875,0.3125 0.28125,0.929688 0.28125,1.84375 0,0.65625 -0.02344,1.277344 -0.0625,1.859375 -0.04297,0.585937 -0.08594,1.1875 -0.125,1.8125 -0.03125,0.617187 -0.07031,1.277344 -0.109375,1.984375 -0.03125,0.699219 -0.04687,1.484375 -0.04687,2.359375 0,0.792969 0.03125,1.4375 0.09375,1.9375 0.07031,0.492187 0.164063,0.871094 0.28125,1.140625 0.113281,0.273438 0.238281,0.460938 0.375,0.5625 0.132813,0.09375 0.269531,0.140625 0.40625,0.140625 0.332031,0 0.640625,-0.144531 0.921875,-0.4375 0.289062,-0.289063 0.585938,-0.710937 0.890625,-1.265625 0.300781,-0.550781 0.609375,-1.222656 0.921875,-2.015625 0.320312,-0.800781 0.679688,-1.703125 1.078125,-2.703125 0.09375,-0.238281 0.207031,-0.421875 0.34375,-0.546875 0.132813,-0.125 0.28125,-0.1875 0.4375,-0.1875 0.113281,0 0.210937,0.04687 0.296875,0.140625 0.09375,0.08594 0.140625,0.203125 0.140625,0.359375 0,0.136719 -0.03125,0.273437 -0.09375,0.40625 z m -8.5625,-17.71875 c 0.164063,0.148437 0.25,0.328125 0.25,0.546875 0,0.117188 -0.02734,0.234375 -0.07813,0.359375 -0.04297,0.125 -0.08594,0.234375 -0.125,0.328125 -0.167969,0.355469 -0.398438,0.730469 -0.6875,1.125 -0.292969,0.398438 -0.664062,0.804688 -1.109375,1.21875 -0.449219,0.417969 -0.984375,0.835938 -1.609375,1.25 -0.625,0.417969 -1.375,0.828125 -2.25,1.234375 -0.117188,0.0625 -0.226562,0.09375 -0.328125,0.09375 -0.273437,0 -0.40625,-0.15625 -0.40625,-0.46875 0,-0.15625 0.050781,-0.3125 0.15625,-0.46875 0.070313,-0.132813 0.238281,-0.378906 0.5,-0.734375 0.257813,-0.363281 0.550781,-0.820312 0.875,-1.375 0.320313,-0.550781 0.644531,-1.179688 0.96875,-1.890625 0.332031,-0.71875 0.601563,-1.503906 0.8125,-2.359375 0.039063,-0.195312 0.125,-0.34375 0.25,-0.4375 0.125,-0.09375 0.238281,-0.140625 0.34375,-0.140625 0.132813,0 0.25,0.07813 0.34375,0.234375 0.175781,0.25 0.351563,0.402344 0.53125,0.453125 0.1875,0.04297 0.316406,0.105469 0.390625,0.1875 0.175781,0.148437 0.34375,0.261719 0.5,0.34375 0.15625,0.07422 0.378906,0.242187 0.671875,0.5 z m 4.765625,0 c 0.164062,0.148437 0.25,0.328125 0.25,0.546875 0,0.117188 -0.02734,0.234375 -0.07813,0.359375 -0.04297,0.125 -0.08594,0.234375 -0.125,0.328125 -0.167969,0.355469 -0.398437,0.730469 -0.6875,1.125 -0.292969,0.398438 -0.664063,0.804688 -1.109375,1.21875 -0.449219,0.417969 -0.984375,0.835938 -1.609375,1.25 -0.625,0.417969 -1.375,0.828125 -2.25,1.234375 -0.117187,0.0625 -0.226563,0.09375 -0.328125,0.09375 -0.273438,0 -0.40625,-0.15625 -0.40625,-0.46875 0,-0.15625 0.050781,-0.3125 0.15625,-0.46875 0.070312,-0.132813 0.238281,-0.378906 0.5,-0.734375 0.257812,-0.363281 0.550781,-0.820312 0.875,-1.375 0.320312,-0.550781 0.644531,-1.179688 0.96875,-1.890625 0.332031,-0.71875 0.601562,-1.503906 0.8125,-2.359375 0.03906,-0.195312 0.125,-0.34375 0.25,-0.4375 0.125,-0.09375 0.238281,-0.140625 0.34375,-0.140625 0.132812,0 0.25,0.07813 0.34375,0.234375 0.175781,0.25 0.351562,0.402344 0.53125,0.453125 0.1875,0.04297 0.316406,0.105469 0.390625,0.1875 0.175781,0.148437 0.34375,0.261719 0.5,0.34375 0.15625,0.07422 0.378906,0.242187 0.671875,0.5 z m 0,0"
           id="path53" />
      </g>
    </g>
  </g>
  <g
     fill="#bb3d34"
     fill-opacity="1"
     id="g67"
     transform="translate(-62.067176,-112.16015)">
    <g
       transform="translate(202.38338,191.93811)"
       id="g65">
      <g
         id="g63">
        <path
           d="m 17.984375,-11.015625 c 0.3125,0 0.46875,0.167969 0.46875,0.5 0,0.136719 -0.03125,0.273437 -0.09375,0.40625 -0.617187,1.71875 -1.179687,3.234375 -1.6875,4.546875 -0.5,1.304688 -0.996094,2.398438 -1.484375,3.28125 -0.480469,0.886719 -0.984375,1.554688 -1.515625,2 C 13.140625,0.15625 12.539062,0.375 11.875,0.375 c -0.84375,0 -1.511719,-0.21875 -2,-0.65625 C 9.394531,-0.71875 9.035156,-1.253906 8.796875,-1.890625 8.566406,-2.523438 8.421875,-3.207031 8.359375,-3.9375 8.304688,-4.664062 8.28125,-5.316406 8.28125,-5.890625 8.28125,-6.941406 8.3125,-7.9375 8.375,-8.875 c 0.070312,-0.9375 0.109375,-1.648438 0.109375,-2.140625 0,-0.726563 -0.203125,-1.09375 -0.609375,-1.09375 -0.3125,0 -0.546875,0.214844 -0.703125,0.640625 -0.09375,0.230469 -0.242187,0.65625 -0.4375,1.28125 C 6.546875,-9.570312 6.320312,-8.875 6.0625,-8.09375 5.800781,-7.3125 5.535156,-6.5 5.265625,-5.65625 4.992188,-4.8125 4.738281,-4.0625 4.5,-3.40625 4.1875,-2.550781 3.898438,-1.851562 3.640625,-1.3125 3.378906,-0.78125 3.132812,-0.367188 2.90625,-0.078125 c -0.230469,0.28125 -0.464844,0.46875 -0.703125,0.5625 -0.230469,0.101563 -0.46875,0.15625 -0.71875,0.15625 -0.21875,0 -0.4375,-0.042969 -0.65625,-0.125 C 0.609375,0.441406 0.410156,0.304688 0.234375,0.109375 0.0546875,-0.078125 -0.0859375,-0.332031 -0.203125,-0.65625 -0.316406,-0.976562 -0.375,-1.390625 -0.375,-1.890625 c 0,-0.519531 0.039062,-1.316406 0.109375,-2.390625 0.0625,-1.070312 0.148437,-2.316406 0.25,-3.734375 0.1015625,-1.414063 0.226563,-2.9375 0.375,-4.5625 0.144531,-1.625 0.296875,-3.257813 0.453125,-4.90625 0.15625,-1.644531 0.304688,-3.238281 0.453125,-4.78125 0.144531,-1.539063 0.273437,-2.921875 0.390625,-4.140625 0.207031,-2.132812 0.421875,-4.023438 0.640625,-5.671875 0.226563,-1.644531 0.53125,-2.929687 0.90625,-3.859375 0.113281,-0.289062 0.238281,-0.519531 0.375,-0.6875 0.132813,-0.175781 0.28125,-0.34375 0.4375,-0.5 0.164063,-0.15625 0.347656,-0.316406 0.546875,-0.484375 0.207031,-0.164063 0.445312,-0.382813 0.71875,-0.65625 0.507812,-0.476563 0.894531,-0.8125 1.15625,-1 0.257812,-0.195313 0.488281,-0.296875 0.6875,-0.296875 0.164062,0 0.347656,0.0625 0.546875,0.1875 0.207031,0.125 0.3125,0.359375 0.3125,0.703125 0,0.08594 -0.027344,0.242187 -0.078125,0.46875 -0.0625,0.230469 -0.171875,0.703125 -0.328125,1.421875 -0.15625,0.71875 -0.335937,1.59375 -0.53125,2.625 -0.1875,1.023438 -0.386719,2.167969 -0.59375,3.4375 -0.199219,1.261719 -0.375,2.574219 -0.53125,3.9375 -0.1875,1.511719 -0.367187,3.03125 -0.53125,4.5625 -0.167969,1.523438 -0.320313,2.996094 -0.453125,4.421875 -0.136719,1.429687 -0.261719,2.765625 -0.375,4.015625 -0.117188,1.25 -0.214844,2.355469 -0.296875,3.3125 -0.074219,0.960938 -0.132813,1.746094 -0.171875,2.359375 -0.042969,0.605469 -0.0625,0.964844 -0.0625,1.078125 0,0.3125 0.019531,0.46875 0.0625,0.46875 0.019531,0 0.101562,-0.1875 0.25,-0.5625 C 4.488281,-7.507812 4.664062,-8 4.875,-8.59375 c 0.21875,-0.601562 0.460938,-1.273438 0.734375,-2.015625 0.269531,-0.75 0.554687,-1.5 0.859375,-2.25 0.3125,-0.757813 0.632812,-1.46875 0.96875,-2.125 0.332031,-0.664063 0.660156,-1.21875 0.984375,-1.65625 0.382813,-0.53125 0.789063,-0.921875 1.21875,-1.171875 0.425781,-0.25 0.84375,-0.375 1.25,-0.375 0.757813,0 1.316406,0.335938 1.671875,1 0.363281,0.667969 0.546875,1.515625 0.546875,2.546875 0,0.449219 -0.03906,1.023437 -0.109375,1.71875 -0.0625,0.699219 -0.132812,1.429687 -0.203125,2.1875 C 12.734375,-9.972656 12.664062,-9.226562 12.59375,-8.5 12.53125,-7.769531 12.5,-7.15625 12.5,-6.65625 c 0,0.542969 0.02344,0.992188 0.07813,1.34375 0.0625,0.34375 0.144531,0.625 0.25,0.84375 0.101563,0.210938 0.21875,0.359375 0.34375,0.453125 0.125,0.085937 0.265625,0.125 0.421875,0.125 0.3125,0 0.609375,-0.164063 0.890625,-0.5 0.28125,-0.34375 0.566406,-0.804687 0.859375,-1.390625 0.289062,-0.582031 0.585938,-1.265625 0.890625,-2.046875 0.3125,-0.78125 0.648437,-1.617187 1.015625,-2.515625 0.101562,-0.25 0.21875,-0.421875 0.34375,-0.515625 0.125,-0.101563 0.253906,-0.15625 0.390625,-0.15625 z m 0,0"
           id="path61" />
      </g>
    </g>
  </g>
  <g
     fill="#bb3d34"
     fill-opacity="1"
     id="g75"
     transform="translate(-62.067176,-112.16015)">
    <g
       transform="translate(219.81388,191.93811)"
       id="g73">
      <g
         id="g71">
        <path
           d="m 14.265625,-11.015625 c 0.113281,0 0.210937,0.04297 0.296875,0.125 0.09375,0.07422 0.140625,0.1875 0.140625,0.34375 0,0.15625 -0.03125,0.304687 -0.09375,0.4375 C 14.316406,-9.296875 14,-8.53125 13.65625,-7.8125 c -0.335938,0.71875 -0.648438,1.359375 -0.9375,1.921875 -0.34375,0.636719 -0.683594,1.234375 -1.015625,1.796875 -0.40625,0.636719 -0.859375,1.242188 -1.359375,1.8125 -0.492188,0.574219 -1.027344,1.078125 -1.609375,1.515625 -0.574219,0.4375 -1.199219,0.78125 -1.875,1.03125 -0.679687,0.25 -1.398437,0.375 -2.15625,0.375 -0.5625,0 -1.179687,-0.101563 -1.84375,-0.296875 C 2.191406,0.15625 1.570312,-0.195312 1,-0.71875 0.425781,-1.25 -0.046875,-1.96875 -0.421875,-2.875 c -0.375,-0.90625 -0.5625,-2.078125 -0.5625,-3.515625 0,-0.65625 0.0625,-1.320313 0.1875,-2 0.125,-0.675781 0.304687,-1.320313 0.53125,-1.9375 0.21875,-0.625 0.46875,-1.207031 0.75,-1.75 0.28125,-0.550781 0.566406,-1.03125 0.859375,-1.4375 0.5,-0.695313 1.03125,-1.347656 1.59375,-1.953125 0.5625,-0.613281 1.125,-1.144531 1.6875,-1.59375 0.570312,-0.457031 1.128906,-0.8125 1.671875,-1.0625 0.550781,-0.25 1.054687,-0.375 1.515625,-0.375 0.738281,0 1.382812,0.28125 1.9375,0.84375 0.550781,0.554688 0.828125,1.355469 0.828125,2.40625 0,0.90625 -0.234375,1.851562 -0.703125,2.828125 -0.460938,0.980469 -1.039062,1.9375 -1.734375,2.875 -0.699219,0.929687 -1.449219,1.789063 -2.25,2.578125 C 5.097656,-6.175781 4.375,-5.519531 3.71875,-5 c 0.34375,0.875 0.785156,1.515625 1.328125,1.921875 0.550781,0.40625 1.109375,0.609375 1.671875,0.609375 0.863281,0 1.640625,-0.28125 2.328125,-0.84375 0.6875,-0.5625 1.304687,-1.25 1.859375,-2.0625 0.550781,-0.8125 1.035156,-1.660156 1.453125,-2.546875 0.414063,-0.894531 0.789063,-1.679687 1.125,-2.359375 0.113281,-0.238281 0.226563,-0.421875 0.34375,-0.546875 0.113281,-0.125 0.257813,-0.1875 0.4375,-0.1875 z M 2.96875,-9.609375 c 0,1.136719 0.082031,2.140625 0.25,3.015625 0.394531,-0.382812 0.789062,-0.820312 1.1875,-1.3125 0.394531,-0.5 0.75,-1.007812 1.0625,-1.53125 0.320312,-0.53125 0.582031,-1.066406 0.78125,-1.609375 0.207031,-0.539063 0.3125,-1.0625 0.3125,-1.5625 0,-0.769531 -0.167969,-1.367187 -0.5,-1.796875 -0.324219,-0.425781 -0.652344,-0.640625 -0.984375,-0.640625 -0.1875,0 -0.40625,0.121094 -0.65625,0.359375 -0.242187,0.242188 -0.46875,0.59375 -0.6875,1.0625 -0.21875,0.46875 -0.402344,1.039062 -0.546875,1.703125 -0.148438,0.667969 -0.21875,1.4375 -0.21875,2.3125 z m 0,0"
           id="path69" />
      </g>
    </g>
  </g>
  <g
     fill="#bb3d34"
     fill-opacity="1"
     id="g83"
     transform="translate(-62.067176,-112.16015)">
    <g
       transform="translate(233.49682,191.93811)"
       id="g81">
      <g
         id="g79">
        <path
           d="m 10.75,-11.015625 c 0.113281,0 0.210938,0.04687 0.296875,0.140625 0.09375,0.08594 0.140625,0.203125 0.140625,0.359375 0,0.136719 -0.03125,0.273437 -0.09375,0.40625 -0.386719,1.125 -0.761719,2.15625 -1.125,3.09375 -0.355469,0.9375 -0.703125,1.804687 -1.046875,2.59375 -0.335937,0.761719 -0.652344,1.414063 -0.953125,1.953125 -0.292969,0.542969 -0.578125,1 -0.859375,1.375 -0.28125,0.367188 -0.5625,0.65625 -0.84375,0.875 C 5.984375,0 5.695312,0.160156 5.40625,0.265625 5.113281,0.359375 4.773438,0.40625 4.390625,0.40625 3.960938,0.40625 3.492188,0.3125 2.984375,0.125 2.484375,-0.0507812 2.015625,-0.398438 1.578125,-0.921875 1.148438,-1.453125 0.789062,-2.1875 0.5,-3.125 0.207031,-4.0625 0.0625,-5.285156 0.0625,-6.796875 c 0,-0.40625 0.0195312,-1.09375 0.0625,-2.0625 0.050781,-0.96875 0.117188,-2.132813 0.203125,-3.5 0.09375,-1.363281 0.203125,-2.90625 0.328125,-4.625 0.125,-1.726563 0.265625,-3.550781 0.421875,-5.46875 0.09375,-1.1875 0.210937,-2.476563 0.359375,-3.875 0.144531,-1.40625 0.296875,-2.773437 0.453125,-4.109375 0.15625,-1.34375 0.304687,-2.578125 0.453125,-3.703125 0.15625,-1.125 0.296875,-2.003906 0.421875,-2.640625 0.132813,-0.675781 0.394531,-1.207031 0.78125,-1.59375 0.382813,-0.382812 0.820313,-0.800781 1.3125,-1.25 0.164063,-0.175781 0.34375,-0.363281 0.53125,-0.5625 0.195313,-0.207031 0.394531,-0.394531 0.59375,-0.5625 0.195313,-0.175781 0.382813,-0.328125 0.5625,-0.453125 0.1875,-0.132813 0.367187,-0.203125 0.546875,-0.203125 0.269531,0 0.40625,0.136719 0.40625,0.40625 0,0.21875 -0.054688,0.609375 -0.15625,1.171875 -0.09375,0.5625 -0.230469,1.464844 -0.40625,2.703125 -0.167969,1.242188 -0.375,2.914062 -0.625,5.015625 -0.242188,2.09375 -0.496094,4.789063 -0.765625,8.078125 -0.054687,0.667969 -0.121094,1.453125 -0.203125,2.359375 -0.074219,0.90625 -0.152344,1.871094 -0.234375,2.890625 -0.074219,1.023438 -0.148437,2.058594 -0.21875,3.109375 -0.0625,1.054687 -0.125,2.054687 -0.1875,3 -0.054687,0.9375 -0.101563,1.792969 -0.140625,2.5625 C 4.519531,-9.335938 4.5,-8.71875 4.5,-8.25 c 0,1.335938 0.140625,2.386719 0.421875,3.15625 0.28125,0.761719 0.75,1.140625 1.40625,1.140625 0.375,0 0.703125,-0.160156 0.984375,-0.484375 0.289062,-0.332031 0.570312,-0.785156 0.84375,-1.359375 0.28125,-0.570313 0.5625,-1.238281 0.84375,-2 0.289062,-0.769531 0.613281,-1.597656 0.96875,-2.484375 0.09375,-0.238281 0.207031,-0.421875 0.34375,-0.546875 0.132812,-0.125 0.28125,-0.1875 0.4375,-0.1875 z m 0,0"
           id="path77" />
      </g>
    </g>
  </g>
  <g
     fill="#bb3d34"
     fill-opacity="1"
     id="g91"
     transform="translate(-62.067176,-112.16015)">
    <g
       transform="translate(243.66461,191.93811)"
       id="g89">
      <g
         id="g87">
        <path
           d="m 20.015625,-10.28125 c -0.386719,1.136719 -0.796875,2.226562 -1.234375,3.265625 -0.4375,1.03125 -0.933594,2.023437 -1.484375,2.96875 -0.554687,0.9375 -1.1875,1.839844 -1.90625,2.703125 -0.710937,0.855469 -1.539063,1.6875 -2.484375,2.5 -0.0625,0.9375 -0.148438,1.878906 -0.25,2.828125 -0.09375,0.945313 -0.199219,1.875 -0.3125,2.78125 -0.3125,2.363281 -0.710938,4.285156 -1.1875,5.765625 -0.480469,1.488281 -0.996094,2.675781 -1.546875,3.5625 C 9.066406,16.988281 8.519531,17.644531 7.96875,18.0625 7.414062,18.488281 6.929688,18.8125 6.515625,19.03125 5.546875,19.507812 4.726562,19.75 4.0625,19.75 3.175781,19.75 2.488281,19.300781 2,18.40625 1.519531,17.519531 1.28125,16.375 1.28125,14.96875 1.28125,13.625 1.5,12.359375 1.9375,11.171875 2.382812,9.992188 2.960938,8.882812 3.671875,7.84375 c 0.707031,-1.042969 1.5,-2.015625 2.375,-2.921875 C 6.929688,4.023438 7.820312,3.195312 8.71875,2.4375 8.769531,1.707031 8.8125,1.019531 8.84375,0.375 8.875,-0.257812 8.910156,-0.800781 8.953125,-1.25 9.003906,-2.394531 9.039062,-3.597656 9.0625,-4.859375 9.082031,-6.128906 9.113281,-7.304688 9.15625,-8.390625 8.707031,-6.691406 8.257812,-5.28125 7.8125,-4.15625 7.363281,-3.03125 6.910156,-2.140625 6.453125,-1.484375 6.003906,-0.828125 5.535156,-0.363281 5.046875,-0.09375 4.566406,0.175781 4.054688,0.3125 3.515625,0.3125 3.128906,0.3125 2.734375,0.203125 2.328125,-0.015625 1.921875,-0.234375 1.546875,-0.644531 1.203125,-1.25 0.867188,-1.863281 0.59375,-2.71875 0.375,-3.8125 0.164062,-4.914062 0.0625,-6.328125 0.0625,-8.046875 c 0,-0.695313 0.0195312,-1.40625 0.0625,-2.125 0.050781,-0.726563 0.125,-1.4375 0.21875,-2.125 0.101562,-0.6875 0.210938,-1.335937 0.328125,-1.953125 0.113281,-0.613281 0.25,-1.148438 0.40625,-1.609375 0.070313,-0.238281 0.164063,-0.421875 0.28125,-0.546875 0.125,-0.125 0.222656,-0.234375 0.296875,-0.328125 0.09375,-0.113281 0.171875,-0.210937 0.234375,-0.296875 0.070313,-0.09375 0.160156,-0.140625 0.265625,-0.140625 0.144531,0 0.25,0.05859 0.3125,0.171875 0.0625,0.105469 0.171875,0.15625 0.328125,0.15625 0.050781,0 0.15625,-0.03906 0.3125,-0.125 0.15625,-0.09375 0.316406,-0.195312 0.484375,-0.3125 0.175781,-0.113281 0.351562,-0.210938 0.53125,-0.296875 0.175781,-0.09375 0.320312,-0.140625 0.4375,-0.140625 0.207031,0 0.3125,0.171875 0.3125,0.515625 0,0.136719 -0.015625,0.292969 -0.046875,0.46875 -0.023437,0.179687 -0.054687,0.382813 -0.09375,0.609375 -0.199219,0.898438 -0.324219,1.835938 -0.375,2.8125 -0.042969,0.96875 -0.0625,2.09375 -0.0625,3.375 0,0.875 0.00391,1.679688 0.015625,2.40625 0.00781,0.71875 0.050781,1.34375 0.125,1.875 0.082031,0.523438 0.207031,0.929688 0.375,1.21875 0.164062,0.28125 0.390625,0.421875 0.671875,0.421875 0.351563,0 0.679687,-0.25 0.984375,-0.75 0.300781,-0.5 0.585938,-1.140625 0.859375,-1.921875 0.269531,-0.789062 0.53125,-1.671875 0.78125,-2.640625 0.25,-0.96875 0.5,-1.921875 0.75,-2.859375 0.25,-0.9375 0.492187,-1.804688 0.734375,-2.609375 0.25,-0.8125 0.507812,-1.445313 0.78125,-1.90625 0.207031,-0.351563 0.539062,-0.65625 1,-0.90625 0.457031,-0.25 0.859375,-0.375 1.203125,-0.375 0.195313,0 0.363281,0.02734 0.5,0.07813 0.132813,0.04297 0.25,0.136719 0.34375,0.28125 0.09375,0.148438 0.164063,0.359375 0.21875,0.640625 0.05078,0.28125 0.07813,0.65625 0.07813,1.125 0,0.792969 -0.01563,1.65625 -0.04687,2.59375 -0.03125,0.9375 -0.07031,1.851563 -0.109375,2.734375 -0.03125,0.886719 -0.07031,1.679688 -0.109375,2.375 -0.04297,0.6875 -0.07422,1.1875 -0.09375,1.5 -0.03125,0.449219 -0.07422,1.183594 -0.125,2.203125 -0.05469,1.011719 -0.117187,2.179687 -0.1875,3.5 0.71875,-0.601563 1.351563,-1.238281 1.90625,-1.90625 C 15.503906,-3.523438 16,-4.238281 16.4375,-5 c 0.445312,-0.769531 0.863281,-1.59375 1.25,-2.46875 0.394531,-0.875 0.773438,-1.8125 1.140625,-2.8125 0.207031,-0.519531 0.5,-0.78125 0.875,-0.78125 0.269531,0 0.40625,0.136719 0.40625,0.40625 0,0.05469 -0.01172,0.121094 -0.03125,0.203125 -0.02344,0.07422 -0.04297,0.132813 -0.0625,0.171875 z M 8.109375,7.546875 C 8.160156,7.203125 8.21875,6.84375 8.28125,6.46875 8.34375,6.101562 8.390625,5.726562 8.421875,5.34375 7.878906,5.976562 7.378906,6.65625 6.921875,7.375 6.472656,8.09375 6.085938,8.875 5.765625,9.71875 5.441406,10.5625 5.1875,11.472656 5,12.453125 4.820312,13.429688 4.734375,14.5 4.734375,15.65625 c 0,0.65625 0.050781,1.117188 0.15625,1.390625 0.113281,0.269531 0.226563,0.40625 0.34375,0.40625 0.1875,0 0.382813,-0.183594 0.59375,-0.546875 C 6.046875,16.539062 6.25,16.066406 6.4375,15.484375 6.625,14.898438 6.800781,14.242188 6.96875,13.515625 7.144531,12.796875 7.304688,12.066406 7.453125,11.328125 7.597656,10.597656 7.726562,9.894531 7.84375,9.21875 7.957031,8.550781 8.046875,7.992188 8.109375,7.546875 Z m 0,0"
           id="path85" />
      </g>
    </g>
  </g>
  <path
     fill="#bb3d34"
     d="m 222.34688,51.16407 c -0.46094,0.16406 -0.83984,0.45312 -1.10937,0.8164 -0.99219,-0.79687 -2.35938,-1.08593 -3.65625,-0.63281 -1.23828,0.42969 -2.11719,1.45313 -2.41407,2.65235 -0.35937,-0.0469 -0.73437,-0.0156 -1.09765,0.11718 -1.23828,0.4336 -1.87891,1.83594 -1.42188,3.09375 0.45703,1.26563 1.82422,1.90235 3.0586,1.44922 0.36328,-0.13281 0.66797,-0.35156 0.91797,-0.61719 0.98828,0.72657 2.30468,0.94922 3.53515,0.4961 1.28906,-0.47656 2.16406,-1.58203 2.41797,-2.83594 0.4375,0.10547 0.91406,0.0859 1.37109,-0.0859 1.23438,-0.45312 1.86719,-1.82812 1.42579,-3.04687 -0.44141,-1.22266 -1.78907,-1.84375 -3.02735,-1.40625"
     fill-opacity="1"
     fill-rule="nonzero"
     id="path99" />
  <path
     fill="#bb3d34"
     d="m 219.81173,44.26954 c -0.44141,0.13281 -0.8086,0.38672 -1.08204,0.71484 -0.90234,-0.77734 -2.16796,-1.11719 -3.41406,-0.75781 -1.1914,0.34375 -2.07031,1.26953 -2.39844,2.40234 -0.33984,-0.0586 -0.69531,-0.0469 -1.04296,0.0586 -1.1836,0.35156 -1.84766,1.67578 -1.44532,2.92187 0.39844,1.24609 1.69141,1.91016 2.86328,1.50781 0.34766,-0.11718 0.64454,-0.3125 0.88282,-0.5625 0.92187,0.72266 2.16406,0.96094 3.33203,0.55469 1.22656,-0.42969 2.0664,-1.45312 2.34375,-2.61719 0.41406,0.10938 0.86328,0.0977 1.29687,-0.0508 1.17578,-0.40234 1.8125,-1.65234 1.45313,-2.78125 -0.36719,-1.1289 -1.59375,-1.74609 -2.78906,-1.39062"
     fill-opacity="1"
     fill-rule="nonzero"
     id="path101" />
  <path
     fill="#bb3d34"
     d="m 217.86251,37.76172 c -0.42578,0.0898 -0.78907,0.29688 -1.07032,0.58204 -0.79296,-0.78125 -1.9375,-1.20313 -3.14062,-0.96875 -1.14063,0.22265 -2.05078,1.02734 -2.43359,2.07812 -0.31641,-0.0859 -0.64844,-0.10156 -0.98438,-0.0312 -0.57031,0.125 -1.03516,0.48438 -1.31641,0.96875 -0.28125,0.48828 -0.39062,1.10938 -0.23437,1.71875 0.29687,1.23438 1.48437,1.95703 2.60937,1.64063 0.33204,-0.0898 0.6211,-0.25782 0.85547,-0.48047 0.82813,0.75 1.98438,1.04297 3.10547,0.71484 1.16797,-0.33594 2.01953,-1.25391 2.34766,-2.31641 0.38281,0.1211 0.80469,0.13672 1.22265,0.0234 1.125,-0.3125 1.79688,-1.42187 1.54688,-2.47265 -0.13672,-0.53125 -0.46875,-0.94922 -0.92188,-1.21485 -0.44921,-0.26172 -1.01562,-0.36719 -1.58593,-0.24219"
     fill-opacity="1"
     fill-rule="nonzero"
     id="path103" />
  <path
     fill="#bb3d34"
     d="m 216.62032,31.60157 c -0.40625,0.043 -0.76953,0.19531 -1.05859,0.42969 -0.32032,-0.40235 -0.75,-0.72657 -1.23829,-0.94141 -0.47656,-0.21875 -1.02343,-0.32813 -1.58984,-0.28125 -1.09375,0.0898 -2.01562,0.74219 -2.48047,1.69141 -0.28125,-0.11329 -0.58984,-0.16407 -0.91015,-0.13282 -1.08204,0.10547 -1.88672,1.1875 -1.70704,2.38672 0.15625,1.20703 1.22266,2.00391 2.29297,1.8125 0.31641,-0.0547 0.60157,-0.1914 0.83985,-0.3789 0.70312,0.78125 1.76562,1.15234 2.83984,0.9414 1.12109,-0.21875 1.98047,-1 2.39453,-1.95312 0.33985,0.14453 0.73047,0.19531 1.13281,0.12109 1.08594,-0.19141 1.79688,-1.14844 1.67188,-2.125 -0.14844,-0.98047 -1.09375,-1.67969 -2.1875,-1.57031"
     fill-opacity="1"
     fill-rule="nonzero"
     id="path105" />
  <path
     fill="#bb3d34"
     d="m 216.12032,25.79688 c -0.375,-0.008 -0.73828,0.0898 -1.03125,0.27344 -0.49609,-0.8125 -1.39844,-1.41406 -2.46875,-1.46485 -1.01953,-0.0508 -1.94141,0.44141 -2.5,1.27344 -0.24609,-0.14062 -0.52734,-0.22656 -0.82813,-0.23047 -1.03125,-0.0312 -1.85546,0.87891 -1.85156,2.02735 0.0312,1.14843 0.90235,2.02343 1.92188,1.95703 0.29687,-0.0156 0.57812,-0.10938 0.82422,-0.25781 0.57031,0.80859 1.52343,1.26562 2.53515,1.1875 1.07031,-0.0859 1.94141,-0.71485 2.42188,-1.55079 0.30078,0.17188 0.65625,0.26172 1.03515,0.23829 1.02344,-0.0625 1.81641,-0.85157 1.78907,-1.76172 0,-0.90235 -0.83594,-1.66407 -1.84766,-1.69141"
     fill-opacity="1"
     fill-rule="nonzero"
     id="path107" />
  <path
     fill="#bb3d34"
     d="m 216.34688,20.38282 c -0.34765,-0.0547 -0.6875,-0.008 -0.98437,0.125 -0.35938,-0.8086 -1.12891,-1.47266 -2.10157,-1.64844 -0.93359,-0.16797 -1.83984,0.17578 -2.44921,0.87109 -0.21094,-0.15625 -0.45704,-0.26953 -0.73438,-0.3125 -0.46875,-0.0703 -0.92969,0.0703 -1.28906,0.36719 -0.34766,0.29688 -0.59766,0.75 -0.66016,1.27735 -0.0312,0.26171 -0.0156,0.51953 0.0469,0.7539 0.0703,0.23438 0.17968,0.45313 0.32031,0.63672 0.28125,0.37109 0.69531,0.60938 1.16797,0.64453 0.27734,0.0195 0.54687,-0.0312 0.78906,-0.14062 0.21484,0.40625 0.52344,0.74609 0.89453,0.98828 0.375,0.24219 0.82031,0.38672 1.29297,0.41015 0.49609,0.0273 0.96094,-0.082 1.37109,-0.28125 0.41797,-0.20312 0.78125,-0.49218 1.05079,-0.85156 0.25781,0.19531 0.57421,0.32031 0.92578,0.34766 0.47265,0.0352 0.91797,-0.10938 1.24609,-0.36328 0.16797,-0.12891 0.30469,-0.28516 0.40625,-0.46094 0.10547,-0.17578 0.17969,-0.36719 0.20313,-0.57813 0.0508,-0.42187 -0.0937,-0.82812 -0.3711,-1.15234 -0.26172,-0.32031 -0.65625,-0.5625 -1.125,-0.63281"
     fill-opacity="1"
     fill-rule="nonzero"
     id="path109" />
  <path
     fill="#bb3d34"
     d="m 217.15938,15.39063 c -0.3125,-0.0859 -0.63281,-0.082 -0.91406,0.0117 -0.23828,-0.78906 -0.86328,-1.48047 -1.73828,-1.74609 -0.83985,-0.25782 -1.70703,-0.043 -2.34766,0.51953 -0.17578,-0.16797 -0.39062,-0.29688 -0.63672,-0.36719 -0.85156,-0.24609 -1.72656,0.32813 -1.96093,1.27344 -0.125,0.46875 -0.0391,0.9375 0.17578,1.30859 0.21875,0.36719 0.57031,0.63672 1,0.72266 0.25,0.0508 0.5,0.0352 0.73437,-0.0312 0.30078,0.79297 0.96875,1.3789 1.83594,1.53515 0.89062,0.16016 1.77734,-0.16406 2.35156,-0.75 0.21485,0.20703 0.49219,0.35938 0.8125,0.42578 0.42969,0.0859 0.84766,0.004 1.1836,-0.1914 0.33203,-0.19531 0.57421,-0.50781 0.67578,-0.89063 0.19531,-0.76172 -0.33985,-1.57812 -1.17188,-1.82031"
     fill-opacity="1"
     fill-rule="nonzero"
     id="path111" />
  <path
     fill="#bb3d34"
     d="m 218.42891,10.85938 c -0.27734,-0.10937 -0.5664,-0.13281 -0.83593,-0.0781 -0.14454,-0.7461 -0.66016,-1.4374998 -1.4336,-1.7656298 -0.74219,-0.30859 -1.54687,-0.19531 -2.17187,0.25781 -0.14453,-0.17187 -0.32813,-0.30859 -0.55078,-0.39453 -0.73829,-0.30078 -1.6211,0.11328 -1.91016,0.94141 -0.28906,0.8320298 0.10156,1.7109398 0.86328,1.9570298 0.22656,0.0742 0.45703,0.0859 0.67578,0.0508 0.17969,0.74219 0.75781,1.35938 1.51953,1.59375 0.8125,0.2461 1.60938,0.0352 2.21875,-0.4414 0.16797,0.21484 0.40235,0.38281 0.6875,0.47656 0.76172,0.24609 1.57813,-0.11719 1.8125,-0.8086 0.24219,-0.6914 -0.12109,-1.48437 -0.875,-1.78906"
     fill-opacity="1"
     fill-rule="nonzero"
     id="path113" />
  <path
     fill="#bb3d34"
     d="m 219.97188,6.7851602 c -0.24219,-0.12109 -0.5039,-0.16015 -0.75,-0.13281 -0.0781,-0.69141 -0.49219,-1.36328 -1.16797,-1.71484 -0.64843,-0.33594 -1.38672,-0.29297 -1.98047,0.0625 -0.12109,-0.16407 -0.27734,-0.30469 -0.47265,-0.39844 -0.64844,-0.33203 -1.45703,-0.0273 -1.80078,0.67969 -0.32813,0.71875 -0.0352,1.54297 0.63281,1.83593 0.19531,0.0859 0.40234,0.11719 0.60547,0.10157 0.10937,0.6914 0.55078,1.28906 1.22265,1.57422 0.70313,0.29296 1.48047,0.1875 2.05469,-0.19922 0.13672,0.21093 0.33594,0.38281 0.58203,0.49218 0.67578,0.29297 1.4336,0.0234 1.71094,-0.59375 0.30078,-0.61328 0.0117,-1.375 -0.63672,-1.70703"
     fill-opacity="1"
     fill-rule="nonzero"
     id="path115" />
  <path
     fill="#bb3d34"
     d="m 227.33907,63.58985 c -0.51172,0.17969 -1.04297,0.19141 -1.53125,0.0586 -0.29297,1.41407 -1.28906,2.625 -2.73438,3.1211 -1.3789,0.47265 -2.83203,0.1914 -3.91406,-0.60547 -0.27734,0.28906 -0.6289,0.52344 -1.03125,0.66406 -1.3789,0.48438 -2.875,-0.21094 -3.35547,-1.5625 -0.48828,-1.35156 0.22266,-2.86719 1.58985,-3.375 0.40234,-0.14844 0.82031,-0.19141 1.21875,-0.14453 0.32812,-1.31641 1.27734,-2.46094 2.64843,-2.96875 1.42969,-0.52734 2.96094,-0.22656 4.07422,0.66797 0.29688,-0.41016 0.71485,-0.73828 1.22266,-0.92578 1.37109,-0.50782 2.89062,0.21093 3.39844,1.62109 0.5039,1.41406 -0.20703,2.96484 -1.58594,3.44922"
     fill-opacity="1"
     fill-rule="nonzero"
     id="path117" />
  <path
     fill="#bb3d34"
     d="m 229.74923,71.90235 c -0.4961,0.14453 -1,0.12109 -1.46094,-0.0273 -0.33594,1.33984 -1.35938,2.4414 -2.75391,2.82031 -1.34375,0.36719 -2.6914,0.0234 -3.67578,-0.77344 -0.28125,0.25781 -0.62109,0.45703 -1.01172,0.57031 -1.34375,0.38282 -2.70312,-0.32031 -3.09765,-1.57422 -0.38282,-1.2539 0.33203,-2.64062 1.65625,-3.07812 0.38671,-0.13281 0.78125,-0.16016 1.15625,-0.10547 0.36328,-1.22266 1.28515,-2.28125 2.60156,-2.73437 1.36719,-0.46485 2.82422,-0.14454 3.85547,0.76171 0.29297,-0.38281 0.69531,-0.6875 1.18359,-0.84765 1.3125,-0.4375 2.76172,0.3164 3.19141,1.72656 0.4414,1.40625 -0.31641,2.88672 -1.64453,3.26172"
     fill-opacity="1"
     fill-rule="nonzero"
     id="path119" />
  <path
     fill="#bb3d34"
     d="m 231.49532,80.08204 c -0.48047,0.0937 -0.94922,0.0273 -1.375,-0.15235 -0.43359,1.25391 -1.48828,2.20313 -2.83594,2.44141 -1.29297,0.23047 -2.55078,-0.21094 -3.39844,-1.03125 -0.28515,0.21875 -0.6289,0.37891 -1.0039,0.45312 -1.28906,0.25 -2.53125,-0.5039 -2.79297,-1.68359 -0.14063,-0.59375 0,-1.19141 0.32031,-1.6875 0.31641,-0.49609 0.82813,-0.89062 1.46485,-1.05469 0.375,-0.0977 0.75,-0.0977 1.10156,-0.0234 0.42187,-1.1211 1.37109,-2.0625 2.63281,-2.41016 1.32813,-0.36328 2.67188,0.0352 3.59766,0.97266 0.30078,-0.34766 0.70312,-0.60938 1.17578,-0.73047 0.63672,-0.16407 1.28125,-0.0391 1.8125,0.30078 0.52734,0.34375 0.93359,0.91406 1.09765,1.60547 0.3086,1.40234 -0.5039,2.75 -1.79687,3"
     fill-opacity="1"
     fill-rule="nonzero"
     id="path121" />
  <path
     fill="#bb3d34"
     d="m 232.38594,88.03907 c -0.45703,0.0391 -0.89843,-0.0664 -1.27734,-0.28125 -0.52344,1.13672 -1.625,1.92187 -2.91016,2 -1.24218,0.082 -2.36328,-0.46485 -3.08593,-1.3125 -0.28907,0.17578 -0.6211,0.28906 -0.98828,0.32031 -1.23829,0.10156 -2.32032,-0.71875 -2.45313,-1.83203 -0.0742,-0.55859 0.11328,-1.09766 0.46484,-1.52734 0.34375,-0.42969 0.86329,-0.75 1.47266,-0.84766 0.36328,-0.0547 0.71484,-0.0234 1.03906,0.0742 0.49219,-1.00391 1.47657,-1.80469 2.69141,-2.01953 1.28125,-0.23047 2.50391,0.27343 3.29687,1.24218 0.31641,-0.29687 0.71485,-0.50781 1.16797,-0.57812 0.61328,-0.0977 1.21094,0.082 1.6836,0.46094 0.46093,0.3789 0.78906,0.96093 0.8789,1.63672 0.16016,1.36718 -0.74609,2.5664 -1.98047,2.66406"
     fill-opacity="1"
     fill-rule="nonzero"
     id="path123" />
  <path
     fill="#bb3d34"
     d="m 232.35469,95.64063 c -0.43359,-0.0156 -0.83203,-0.16797 -1.16015,-0.41016 -0.6211,1.00782 -1.71094,1.61719 -2.9336,1.54688 -1.16015,-0.0625 -2.16406,-0.69922 -2.75,-1.57031 -0.28906,0.13281 -0.61328,0.19922 -0.95703,0.1914 -1.17187,-0.0469 -2.07031,-0.92968 -2.08984,-1.97656 0,-0.52344 0.23437,-1.00391 0.59375,-1.36719 0.37109,-0.36328 0.89062,-0.60547 1.47656,-0.6289 0.34375,-0.0156 0.66797,0.0508 0.95703,0.17968 0.28907,-0.4414 0.6875,-0.82031 1.15235,-1.10156 0.45703,-0.28125 0.99609,-0.46094 1.57812,-0.5 0.60938,-0.0352 1.19141,0.0937 1.70313,0.35547 0.5039,0.26563 0.93359,0.66797 1.25,1.16797 0.32422,-0.25 0.72265,-0.40625 1.15625,-0.42188 0.58593,-0.0234 1.12109,0.21094 1.51953,0.61719 0.40234,0.40625 0.64453,0.98828 0.64453,1.63672 0.0234,1.30078 -0.98047,2.32422 -2.14063,2.28125"
     fill-opacity="1"
     fill-rule="nonzero"
     id="path125" />
  <path
     fill="#bb3d34"
     d="m 231.4836,102.72266 c -0.40234,-0.0586 -0.75781,-0.24609 -1.03906,-0.50781 -0.67188,0.87109 -1.77344,1.31641 -2.90235,1.125 -1.07812,-0.1875 -1.92187,-0.88672 -2.38671,-1.76563 -0.28125,0.0898 -0.59375,0.1211 -0.91016,0.0703 -0.54297,-0.0781 -1.00391,-0.35547 -1.3125,-0.73047 -0.31641,-0.375 -0.45703,-0.84766 -0.41797,-1.34375 0.0508,-0.49219 0.31641,-0.91406 0.71094,-1.21094 0.39062,-0.29687 0.89062,-0.46484 1.4375,-0.42187 0.32031,0.0273 0.61719,0.12109 0.8789,0.27343 0.61719,-0.75781 1.61719,-1.24218 2.71094,-1.18359 1.14063,0.0625 2.09766,0.74219 2.58594,1.74219 0.33203,-0.19141 0.71484,-0.29297 1.12109,-0.26172 0.53907,0.043 1.03125,0.32031 1.34766,0.74219 0.31641,0.42187 0.48047,0.99218 0.41797,1.59375 -0.0508,0.60156 -0.36328,1.11328 -0.76953,1.45703 -0.41016,0.33984 -0.92969,0.5 -1.47266,0.42187"
     fill-opacity="1"
     fill-rule="nonzero"
     id="path127" />
  <path
     fill="#bb3d34"
     d="m 229.93282,109.1836 c -0.36719,-0.0937 -0.67969,-0.30078 -0.91406,-0.57031 -0.72266,0.73437 -1.76172,1.04687 -2.79297,0.75781 -0.98047,-0.27344 -1.72656,-1.01172 -2.05078,-1.87891 -0.27344,0.0586 -0.56641,0.0547 -0.85938,-0.0195 -0.49219,-0.1289 -0.89062,-0.43359 -1.14062,-0.8164 -0.25,-0.38282 -0.33985,-0.83985 -0.25,-1.30079 0.19531,-0.91015 1.17187,-1.49218 2.16406,-1.30468 0.29687,0.0547 0.5625,0.17968 0.78906,0.34765 0.64844,-0.64062 1.625,-0.98828 2.63281,-0.8164 1.05079,0.17968 1.8711,0.91406 2.21875,1.89062 0.32813,-0.14062 0.69532,-0.19531 1.06641,-0.125 1.01563,0.19141 1.63672,1.23828 1.40234,2.33594 -0.11328,0.54687 -0.4414,0.99219 -0.85546,1.26172 -0.41407,0.26953 -0.91797,0.36719 -1.41016,0.23828"
     fill-opacity="1"
     fill-rule="nonzero"
     id="path129" />
  <path
     fill="#bb3d34"
     d="m 227.90938,114.99219 c -0.33203,-0.12109 -0.59765,-0.33593 -0.79687,-0.60547 -0.73047,0.60938 -1.73438,0.80469 -2.66016,0.45704 -0.89062,-0.33594 -1.50391,-1.07422 -1.72656,-1.90625 -0.25391,0.0312 -0.52735,0.004 -0.78906,-0.0937 -0.88282,-0.32032 -1.38672,-1.26172 -1.10938,-2.09766 0.29297,-0.82813 1.20313,-1.29688 2.12109,-1.02734 0.26563,0.082 0.5,0.21875 0.69141,0.39453 0.67188,-0.53125 1.60938,-0.76172 2.52344,-0.50391 0.95312,0.26953 1.63672,1.01953 1.86719,1.94922 0.3125,-0.10156 0.66015,-0.11719 0.99609,-0.0156 0.90234,0.26954 1.42969,1.29688 1.09375,2.26954 -0.32813,0.97656 -1.3125,1.50781 -2.21094,1.17968"
     fill-opacity="1"
     fill-rule="nonzero"
     id="path131" />
  <path
     fill="#bb3d34"
     d="m 225.58516,120.14454 c -0.29687,-0.13282 -0.53125,-0.34766 -0.6914,-0.60938 -0.71875,0.50391 -1.64844,0.61719 -2.47657,0.23438 -0.79296,-0.3711 -1.3125,-1.09766 -1.45703,-1.87891 -0.24218,0.008 -0.48828,-0.0352 -0.72265,-0.14062 -0.40235,-0.17969 -0.69141,-0.4961 -0.83985,-0.85938 -0.15625,-0.36719 -0.17968,-0.78516 -0.0234,-1.16406 0.3125,-0.76172 1.23828,-1.11328 2.04687,-0.79688 0.23828,0.0937 0.44531,0.24219 0.60547,0.41797 0.65625,-0.4414 1.52734,-0.57812 2.34766,-0.26953 0.85156,0.32422 1.43359,1.07422 1.57421,1.94141 0.30079,-0.0664 0.61719,-0.0508 0.91797,0.0703 0.82422,0.32031 1.19141,1.28125 0.83203,2.14844 -0.17968,0.43359 -0.5,0.75781 -0.88671,0.91797 -0.38672,0.16015 -0.82813,0.16796 -1.22657,-0.0117"
     fill-opacity="1"
     fill-rule="nonzero"
     id="path133" />
  <path
     fill="#bb3d34"
     d="m 223.12423,124.69922 c -0.26172,-0.14062 -0.46485,-0.35156 -0.59375,-0.59765 -0.6875,0.41406 -1.54688,0.46484 -2.28516,0.0664 -0.70703,-0.38281 -1.13672,-1.07421 -1.22266,-1.80468 -0.21875,-0.004 -0.4414,-0.0586 -0.65234,-0.16797 -0.70313,-0.375 -1.00391,-1.23047 -0.66406,-1.91406 0.33593,-0.6836 1.19922,-0.95704 1.92578,-0.61329 0.21094,0.10547 0.38672,0.25 0.52344,0.42188 0.63671,-0.36328 1.4375,-0.43359 2.16796,-0.0937 0.75782,0.35156 1.2461,1.08203 1.3125,1.875 0.27735,-0.0391 0.56641,-0.004 0.83594,0.12891 0.72656,0.34375 1.00781,1.24218 0.63281,2.0039 -0.3789,0.76563 -1.26171,1.07422 -1.98046,0.69531"
     fill-opacity="1"
     fill-rule="nonzero"
     id="path135" />
  <g
     clip-path="url(#e4b066bd9d)"
     id="g139"
     transform="translate(-62.067176,-112.16015)">
    <path
       fill="#bb3d34"
       d="m 282.69922,240.84766 c -0.23438,-0.14063 -0.41016,-0.33985 -0.51563,-0.57032 -0.63281,0.34766 -1.40625,0.35938 -2.0625,-0.0391 -0.62109,-0.37891 -0.99218,-1.03125 -1.03906,-1.70312 -0.19922,-0.0117 -0.39844,-0.0742 -0.58203,-0.1836 -0.63281,-0.375 -0.85547,-1.16797 -0.50391,-1.77734 0.35938,-0.60156 1.13672,-0.82031 1.77735,-0.46875 0.1875,0.10547 0.34375,0.25 0.45703,0.41406 0.59375,-0.30078 1.33203,-0.31641 1.97265,0.0312 0.67188,0.36328 1.0625,1.04297 1.09375,1.77344 0.25,-0.0273 0.51172,0.0195 0.75,0.15234 0.63672,0.35156 0.8711,1.19141 0.48047,1.85156 -0.38281,0.66016 -1.19922,0.89454 -1.82812,0.51954"
       fill-opacity="1"
       fill-rule="nonzero"
       id="path137" />
  </g>
  <g
     clip-path="url(#1e22a2c234)"
     id="g143"
     transform="translate(-62.067176,-112.16015)">
    <path
       fill="#92241c"
       d="m 291.22656,112.16016 c 0,0 -0.0781,0.28906 -0.22656,0.82812 -0.082,0.26953 -0.17578,0.60156 -0.26953,0.9961 -0.0937,0.39062 -0.21485,0.83593 -0.32422,1.34375 -0.0586,0.2539 -0.11719,0.51953 -0.17969,0.79687 -0.0586,0.28125 -0.11328,0.57422 -0.17187,0.88281 -0.0625,0.30469 -0.11719,0.6211 -0.17188,0.95313 -0.0547,0.33203 -0.12109,0.67187 -0.17187,1.02734 -0.21485,1.41797 -0.3711,3.02735 -0.46485,4.77735 -0.0898,1.7539 -0.10156,3.65234 0.004,5.65624 0.0977,2.00391 0.30078,4.10938 0.60156,6.28125 0.3086,2.16797 0.70703,4.39844 1.1875,6.66016 0.48438,2.25391 1.03125,4.53906 1.63672,6.82031 0.58594,2.28125 1.23438,4.55469 1.86719,6.80078 0.3164,1.125 0.63281,2.24219 0.94531,3.34375 0.3125,1.10547 0.625,2.19532 0.91406,3.27735 0.58985,2.16015 1.13282,4.26172 1.58594,6.27734 0.45703,2.01172 0.82813,3.94141 1.07422,5.73828 0.25781,1.80078 0.36719,3.46875 0.38281,4.95313 0.0195,1.47656 -0.10156,2.77344 -0.27734,3.8164 -0.16797,1.05079 -0.41797,1.84766 -0.58203,2.38282 -0.0899,0.26562 -0.17578,0.46484 -0.22266,0.60156 -0.0508,0.13672 -0.0781,0.20703 -0.0781,0.20703 0,0 0.043,-0.29687 0.13281,-0.84766 0.0703,-0.55468 0.14453,-1.36718 0.15625,-2.39453 0.0117,-1.02734 -0.082,-2.27343 -0.27344,-3.6875 -0.19922,-1.41015 -0.51172,-2.99218 -0.9375,-4.69922 -0.42187,-1.71093 -0.94922,-3.54687 -1.54687,-5.48437 -0.59375,-1.9375 -1.26563,-3.97656 -1.95313,-6.09375 -0.34375,-1.05859 -0.69531,-2.13672 -1.05078,-3.23047 -0.35156,-1.09375 -0.70703,-2.19922 -1.05078,-3.32812 -0.69922,-2.24219 -1.36328,-4.54688 -1.97656,-6.8711 -0.60157,-2.32422 -1.15235,-4.67187 -1.58594,-7.01172 -0.11328,-0.58203 -0.21094,-1.16797 -0.3125,-1.74609 -0.0859,-0.58594 -0.1836,-1.16406 -0.26172,-1.74609 -0.16797,-1.15235 -0.29688,-2.30469 -0.40234,-3.4375 -0.20313,-2.26563 -0.26954,-4.46875 -0.21485,-6.5586 0.0508,-2.08984 0.24219,-4.05859 0.52344,-5.85937 0.28125,-1.80078 0.66016,-3.42578 1.07031,-4.84375 0.40625,-1.41406 0.83594,-2.6211 1.23828,-3.59375 0.1875,-0.48828 0.38672,-0.91797 0.55469,-1.28906 0.16406,-0.375 0.32031,-0.6836 0.44531,-0.9336 0.25,-0.5 0.38672,-0.76562 0.38672,-0.76562"
       fill-opacity="1"
       fill-rule="nonzero"
       id="path141" />
  </g>
  <g
     clip-path="url(#566e0ae015)"
     id="g147"
     transform="translate(-62.067176,-112.16015)">
    <path
       fill="#bb3d34"
       d="m 272.37891,181.20312 c 0,0 0.0937,0.23438 0.26953,0.66407 0.17578,0.43359 0.43359,1.0664 0.72656,1.89062 0.29297,0.82031 0.65625,1.81641 1.01953,2.97656 0.37109,1.15625 0.75391,2.47266 1.13672,3.92579 0.19922,0.72265 0.36719,1.48437 0.5625,2.26953 0.17578,0.78906 0.35937,1.60547 0.52344,2.45312 0.33984,1.6875 0.62109,3.48438 0.86328,5.35156 0.10547,0.9375 0.21875,1.88672 0.28906,2.85938 0.0352,0.48437 0.0859,0.96875 0.10938,1.46094 0.0234,0.49218 0.0469,0.98437 0.0742,1.48047 0.0664,1.98828 0.0664,4.01171 -0.0547,6.03125 -0.14453,2.01953 -0.33203,4.04296 -0.69532,6.01171 -0.33593,1.97266 -0.78906,3.89454 -1.35937,5.71875 -0.54297,1.82813 -1.24219,3.54297 -1.94922,5.13672 -0.75781,1.57813 -1.53125,3.03125 -2.36328,4.30469 -0.20703,0.32031 -0.41016,0.62891 -0.60547,0.93359 -0.19531,0.30469 -0.41797,0.58204 -0.62109,0.86329 -0.41407,0.55078 -0.78516,1.08593 -1.19532,1.54296 -0.40234,0.46485 -0.75781,0.91407 -1.12109,1.29688 -0.37109,0.37891 -0.70703,0.72656 -1.01562,1.03906 -0.15235,0.15625 -0.28907,0.3086 -0.4336,0.44141 -0.14453,0.1289 -0.28125,0.25 -0.41015,0.36328 -0.25,0.22656 -0.46875,0.41406 -0.64063,0.57031 -0.35156,0.30469 -0.53906,0.46875 -0.53906,0.46875 0,0 0.14453,-0.20312 0.41015,-0.58594 0.13672,-0.1875 0.30469,-0.42187 0.5,-0.6914 0.19532,-0.27344 0.42579,-0.58203 0.66016,-0.94922 0.23438,-0.35938 0.49609,-0.75391 0.78125,-1.1875 0.27734,-0.4375 0.55469,-0.92188 0.86328,-1.43359 0.3125,-0.50391 0.60547,-1.06641 0.91797,-1.65235 0.15234,-0.29687 0.32813,-0.58594 0.47656,-0.90234 0.15235,-0.31641 0.30469,-0.63672 0.46094,-0.96485 0.63672,-1.30468 1.21875,-2.76562 1.78906,-4.32031 0.53907,-1.5664 1.07032,-3.23047 1.48047,-4.98828 0.22266,-0.875 0.39453,-1.77734 0.58985,-2.68359 0.0898,-0.45313 0.15625,-0.91797 0.23828,-1.38282 0.0391,-0.23046 0.082,-0.46093 0.125,-0.69531 0.0312,-0.23047 0.0625,-0.46875 0.0976,-0.70312 0.28125,-1.875 0.45313,-3.80078 0.57422,-5.73047 l 0.0781,-1.44922 c 0.0156,-0.48047 0.0273,-0.96484 0.0391,-1.44531 0.0156,-0.48438 0.0234,-0.96485 0.0234,-1.44922 0,-0.48047 0.0117,-0.95703 0.004,-1.4336 -0.0234,-1.91406 -0.10547,-3.79687 -0.21093,-5.625 -0.13282,-1.82421 -0.26172,-3.59375 -0.44922,-5.26562 -0.17188,-1.67578 -0.36328,-3.25781 -0.5586,-4.72266 -0.0976,-0.73437 -0.1914,-1.43359 -0.28906,-2.10156 -0.0898,-0.66797 -0.1875,-1.30078 -0.27734,-1.89453 -0.0899,-0.59766 -0.17578,-1.15625 -0.25,-1.67188 -0.0781,-0.51562 -0.14844,-0.99218 -0.22266,-1.41796 -0.13672,-0.85938 -0.24219,-1.53516 -0.31641,-1.9961 -0.0664,-0.46094 -0.10546,-0.71094 -0.10546,-0.71094"
       fill-opacity="1"
       fill-rule="nonzero"
       id="path145" />
  </g>
  <g
     fill="#bb3d34"
     fill-opacity="1"
     id="g155"
     transform="translate(-62.067176,-112.16015)">
    <g
       transform="translate(131.05127,227.61425)"
       id="g153">
      <g
         id="g151">
        <path
           d="M 12.890625,-12.625 V 0.453125 h -0.0625 L 3.734375,-8.375 3.78125,0 H 1.734375 V -13.0625 H 1.84375 l 9.0625,8.9375 -0.03125,-8.5 z m 0,0"
           id="path149" />
      </g>
    </g>
  </g>
  <g
     fill="#bb3d34"
     fill-opacity="1"
     id="g163"
     transform="translate(-62.067176,-112.16015)">
    <g
       transform="translate(147.51158,227.61425)"
       id="g161">
      <g
         id="g159">
        <path
           d="m 0.953125,-6.296875 c 0,-1.15625 0.285156,-2.226563 0.859375,-3.21875 0.582031,-0.988281 1.367188,-1.773437 2.359375,-2.359375 0.988281,-0.59375 2.066406,-0.890625 3.234375,-0.890625 1.15625,0 2.226562,0.296875 3.21875,0.890625 0.988281,0.585938 1.773438,1.375 2.359375,2.375 0.59375,0.992188 0.890625,2.058594 0.890625,3.203125 0,1.167969 -0.292969,2.246094 -0.875,3.234375 -0.585938,0.980469 -1.375,1.761719 -2.375,2.34375 -0.992188,0.574219 -2.0625,0.859375 -3.21875,0.859375 -1.167969,0 -2.246094,-0.285156 -3.234375,-0.859375 C 3.179688,-1.289062 2.394531,-2.066406 1.8125,-3.046875 1.238281,-4.035156 0.953125,-5.117188 0.953125,-6.296875 Z m 2.078125,0 c 0,0.824219 0.195312,1.578125 0.59375,2.265625 0.394531,0.679688 0.929688,1.21875 1.609375,1.625 0.675781,0.40625 1.414063,0.609375 2.21875,0.609375 0.800781,0 1.53125,-0.195313 2.1875,-0.59375 0.65625,-0.40625 1.175781,-0.953125 1.5625,-1.640625 0.394531,-0.6875 0.59375,-1.441406 0.59375,-2.265625 0,-0.820313 -0.199219,-1.578125 -0.59375,-2.265625 -0.398437,-0.695312 -0.929687,-1.25 -1.59375,-1.65625 -0.667969,-0.40625 -1.402344,-0.609375 -2.203125,-0.609375 -0.8125,0 -1.554688,0.203125 -2.21875,0.609375 C 4.53125,-9.8125 4.003906,-9.257812 3.609375,-8.5625 3.222656,-7.875 3.03125,-7.117188 3.03125,-6.296875 Z M 6.0625,-13.46875 H 4.84375 L 6.25,-15.78125 h 2.140625 z m 2.84375,0.03125 H 7.6875 L 9.09375,-15.75 h 2.140625 z m 0,0"
           id="path157" />
      </g>
    </g>
  </g>
  <g
     fill="#bb3d34"
     fill-opacity="1"
     id="g171"
     transform="translate(-62.067176,-112.16015)">
    <g
       transform="translate(164.16268,227.61425)"
       id="g169">
      <g
         id="g167">
        <path
           d="M 3.734375,-7.140625 4,-7.546875 8.765625,-12.625 h 2.59375 L 6.140625,-7.109375 11.546875,0 h -2.5625 l -4.3125,-5.828125 -0.890625,0.875 V 0 H 1.734375 V -12.625 H 3.78125 v 4.84375 z m 0,0"
           id="path165" />
      </g>
    </g>
  </g>
  <g
     fill="#bb3d34"
     fill-opacity="1"
     id="g179"
     transform="translate(-62.067176,-112.16015)">
    <g
       transform="translate(177.93472,227.61425)"
       id="g177">
      <g
         id="g175">
        <path
           d="M 12.890625,-12.625 V 0.453125 h -0.0625 L 3.734375,-8.375 3.78125,0 H 1.734375 V -13.0625 H 1.84375 l 9.0625,8.9375 -0.03125,-8.5 z m 0,0"
           id="path173" />
      </g>
    </g>
  </g>
  <g
     fill="#bb3d34"
     fill-opacity="1"
     id="g187"
     transform="translate(-62.067176,-112.16015)">
    <g
       transform="translate(194.39504,227.61425)"
       id="g185">
      <g
         id="g183">
        <path
           d="m 10.109375,-12.625 v 1.9375 h -6.34375 v 3.375 h 5.65625 v 1.9375 h -5.65625 v 3.4375 h 6.59375 V 0 h -8.625 v -12.625 z m 0,0"
           id="path181" />
      </g>
    </g>
  </g>
  <g
     fill="#bb3d34"
     fill-opacity="1"
     id="g195"
     transform="translate(-62.067176,-112.16015)">
    <g
       transform="translate(207.62943,227.61425)"
       id="g193">
      <g
         id="g191">
        <path
           d="M 3.734375,-7.140625 4,-7.546875 8.765625,-12.625 h 2.59375 L 6.140625,-7.109375 11.546875,0 h -2.5625 l -4.3125,-5.828125 -0.890625,0.875 V 0 H 1.734375 V -12.625 H 3.78125 v 4.84375 z m 0,0"
           id="path189" />
      </g>
    </g>
  </g>
</svg>
